<svg width="22" height="21" viewBox="0 0 22 21" fill="none" xmlns="http://www.w3.org/2000/svg">
<path d="M20.5244 5.36061C19.5408 3.71151 18.2065 2.40591 16.5213 1.44353C14.8358 0.481094 12.9958 0 10.9999 0C9.00426 0 7.16362 0.481241 5.4785 1.44353C3.79313 2.40586 2.45893 3.71151 1.47528 5.36061C0.491775 7.00966 0 8.81044 0 10.7629C0 13.1082 0.699311 15.2172 2.09828 17.0904C3.49711 18.9637 5.30418 20.26 7.51935 20.9794C7.7772 21.0262 7.96808 20.9933 8.09219 20.8814C8.21635 20.7694 8.27836 20.6291 8.27836 20.4611C8.27836 20.4331 8.2759 20.1809 8.27113 19.7043C8.26622 19.2278 8.26391 18.812 8.26391 18.4573L7.93447 18.513C7.72443 18.5507 7.45945 18.5666 7.13954 18.5621C6.81979 18.5577 6.48784 18.525 6.14415 18.464C5.80032 18.4036 5.48051 18.2634 5.18448 18.0439C4.8886 17.8243 4.67856 17.5369 4.5544 17.1821L4.41118 16.8596C4.31571 16.6449 4.16542 16.4064 3.96009 16.145C3.75476 15.8833 3.54712 15.7059 3.33708 15.6125L3.2368 15.5422C3.16998 15.4955 3.10797 15.4392 3.05063 15.3739C2.99334 15.3086 2.95045 15.2432 2.92181 15.1777C2.89311 15.1122 2.91689 15.0584 2.99339 15.0163C3.06989 14.9741 3.20815 14.9536 3.40876 14.9536L3.69511 14.9955C3.88609 15.033 4.12232 15.1448 4.4041 15.3318C4.68573 15.5186 4.91725 15.7615 5.0987 16.0603C5.31843 16.4435 5.58315 16.7355 5.89363 16.9364C6.20385 17.1373 6.51663 17.2376 6.83168 17.2376C7.14672 17.2376 7.41882 17.2142 7.64807 17.1677C7.87708 17.121 8.09194 17.0507 8.29255 16.9574C8.37849 16.3311 8.61246 15.85 8.99427 15.5138C8.45007 15.4578 7.96081 15.3735 7.52622 15.2615C7.09189 15.1492 6.64305 14.9671 6.18002 14.7146C5.71674 14.4625 5.33242 14.1494 5.02696 13.7758C4.72145 13.4021 4.47072 12.9114 4.27513 12.3043C4.07943 11.6969 3.98156 10.9962 3.98156 10.2021C3.98156 9.07138 4.3588 8.10919 5.11315 7.31498C4.75978 6.4649 4.79314 5.51194 5.21333 4.4562C5.49024 4.37201 5.9009 4.43519 6.4451 4.64533C6.9894 4.85556 7.38791 5.03566 7.64105 5.18498C7.89419 5.33425 8.09701 5.46075 8.24981 5.56334C9.138 5.32051 10.0546 5.19907 10.9998 5.19907C11.945 5.19907 12.8618 5.32051 13.75 5.56334L14.2943 5.22714C14.6665 5.00282 15.106 4.79725 15.6117 4.61038C16.1178 4.4236 16.5048 4.37216 16.7723 4.45634C17.2018 5.51214 17.2401 6.46505 16.8866 7.31513C17.6409 8.10934 18.0183 9.07177 18.0183 10.2022C18.0183 10.9963 17.9201 11.6992 17.7247 12.3113C17.529 12.9234 17.2761 13.4136 16.9659 13.7828C16.6553 14.152 16.2686 14.4627 15.8055 14.7148C15.3424 14.9671 14.8934 15.1492 14.4591 15.2614C14.0245 15.3736 13.5353 15.4579 12.9911 15.514C13.4874 15.9343 13.7356 16.5977 13.7356 17.5039V20.4607C13.7356 20.6287 13.7953 20.7689 13.9148 20.881C14.0342 20.9929 14.2227 21.0258 14.4805 20.9789C16.696 20.2597 18.503 18.9633 19.9018 17.09C21.3004 15.2168 22 13.1078 22 10.7625C21.9995 8.81029 21.5075 7.00966 20.5244 5.36061Z" fill="#F0EFF0"/>
</svg>
