<svg fill="none" height="16" viewBox="0 0 19 16" width="19" xmlns="http://www.w3.org/2000/svg"><path d="m19 1.89415c-.7066.32123-1.4594.53416-2.2444.63754.8075-.49969 1.4238-1.28492 1.7136-2.231382-.7529.46523-1.5841.793842-2.47.977232-.7149-.788924-1.7338-1.27754-2.8453-1.27754-2.1565 0-3.89259 1.81415-3.89259 4.03815 0 .32.02613.6277.09025.92062-3.23831-.16369-6.10375-1.77231-8.02869-4.22277-.336058.60431-.533182 1.296-.533182 2.04062 0 1.39815.694692 2.63753 1.730192 3.35507-.62582-.01231-1.23975-.20061-1.75988-.49723v.04431c0 1.96185 1.35019 3.59138 3.12075 3.96677-.31706.08984-.66263.13292-1.02125.13292-.24937 0-.50113-.01477-.73744-.06892.50469 1.59876 1.93682 2.77416 3.63969 2.81226-1.32525 1.0745-3.00794 1.7219-4.829562 1.7219-.319438 0-.625813-.0148-.932188-.0554 1.72544 1.1532 3.77031 1.8117 5.9755 1.8117 7.1677 0 11.0865-6.15385 11.0865-11.488 0-.17846-.0059-.35077-.0142-.52185.773-.56861 1.4226-1.27877 1.9522-2.096z" fill="#f0eff0"/></svg>