<svg width="30" height="35" viewBox="0 0 30 35" fill="none" xmlns="http://www.w3.org/2000/svg">
<path d="M13.2457 19.9079C13.6608 20.315 14.0811 20.7188 14.5018 21.1191C17.6319 24.095 21.0265 26.7744 19.8361 32.5044L19.8957 32.5023H22.4517C23.1084 32.5023 23.5964 32.6691 23.9019 32.9967C24.1026 33.212 24.2085 33.4757 24.2638 33.7091H4.23747C4.64367 27.4031 8.14826 21.9933 13.2457 19.9079ZM22.6881 11.4802C25.7468 13.7907 28.569 16.2764 28.6949 19.7335C28.8052 22.7527 26.8608 26.2299 22.7724 30.3009C27.9131 20.4391 25.7749 15.2653 22.6881 11.4802ZM19.6628 15.8993C18.1666 12.8662 16.6381 9.76221 16.4323 6.19812C17.1925 7.48392 18.3049 8.64874 19.4494 9.84067C22.9711 13.5091 26.8836 17.5881 22.8709 27.0726C23.1225 22.9192 21.3743 19.3699 19.6628 15.8993ZM17.5519 21.2397C14.4736 17.1136 11.3057 12.8627 15.1204 4.55842C14.8575 9.08809 16.6984 12.8255 18.4943 16.4668C20.4193 20.3702 22.2619 24.1106 21.3565 28.6445C20.936 25.7782 19.2264 23.4837 17.5519 21.2397ZM10.1223 11.853C10.138 9.62151 11.362 7.11214 13.8345 4.24909C10.6045 11.452 12.3213 15.9038 14.7635 19.5784C12.2866 17.2046 10.1003 14.8869 10.1223 11.853ZM8.82152 11.8441C8.81075 13.3493 9.24924 14.6877 9.95376 15.9188C9.11363 15.0325 8.30622 13.9006 7.78451 12.5037C6.27878 8.47004 2.4386 6.6387 0 6.55366V7.84398C1.66244 7.93888 5.18236 9.24891 6.5649 12.9512C7.0332 14.206 7.69755 15.2648 8.41967 16.1448C7.64662 15.4861 6.89946 14.6384 6.30321 13.5434C5.11424 11.3608 2.73051 9.18072 0 9.07905V10.3671C1.62621 10.4571 3.78574 11.6365 5.15875 14.1571C5.77218 15.2827 6.51666 16.1789 7.29488 16.8926C6.58891 16.4806 5.9229 15.9437 5.38359 15.2402C4.02278 13.4651 2.32018 11.6543 0 11.65V12.9401C1.75333 12.9461 3.18162 14.4995 4.34823 16.0209C5.00369 16.876 5.7991 17.5226 6.63342 18.0116C6.58146 17.9932 6.53239 17.9792 6.48002 17.9599C5.89143 17.7438 5.15482 17.0966 4.37494 16.4114C3.07397 15.2679 1.60737 14.1315 0 14.1664V15.4555C1.09974 15.4218 2.38166 16.3837 3.51266 17.3772C4.38612 18.1445 5.21134 18.8698 6.02869 19.1697C6.1351 19.2089 6.23758 19.2418 6.34193 19.2771C6.21937 19.2574 6.09825 19.2414 5.97341 19.2169C5.32914 19.0914 4.57141 18.544 3.76897 17.965C2.65246 17.1584 1.38813 16.5634 0 16.5486V17.8391C0.970553 17.8537 2.00363 18.2859 3.00358 19.0076C3.92548 19.6731 4.79645 20.3025 5.7227 20.4828C6.5738 20.6486 7.37624 20.7147 8.11617 20.7147C8.58074 20.7147 9.01757 20.6868 9.42852 20.6426C5.43058 23.7581 2.92594 28.9185 2.89903 35H25.5611L25.6159 34.4146C25.6211 34.3598 25.7312 33.0727 24.8696 32.1345C24.523 31.757 24.0802 31.4957 23.5477 31.3492C28.0011 26.941 30.1194 23.1043 29.9948 19.6871C29.8294 15.1488 25.7925 12.1609 22.2306 9.52518C20.0582 7.91772 18.331 6.5779 17.3733 5.22555C16.8255 4.17001 16.6054 3.0436 16.8979 1.71406C16.9075 1.67832 16.918 1.64237 16.9275 1.60684L27.6695 5.06801L27.4856 6.10179C26.2008 6.19196 25.1129 7.12899 24.8793 8.44395C24.6077 9.97171 25.5963 11.412 27.1299 11.7221L27.3898 10.4577C26.5521 10.2884 26.012 9.50237 26.1602 8.66784C26.3084 7.83371 27.0848 7.2779 27.9322 7.4032L28.5586 7.49562L29.1468 4.18726L16.1721 0C11.2748 4.52515 8.84594 8.42711 8.82152 11.8441Z" fill="white" fill-opacity="0.9"/>
</svg>
