<svg width="1920" height="1250" viewBox="0 0 1920 1250" fill="none" xmlns="http://www.w3.org/2000/svg">
<mask id="mask0" mask-type="alpha" maskUnits="userSpaceOnUse" x="0" y="0" width="1920" height="1250">
<rect width="1920" height="1250" fill="#C4C4C4"/>
</mask>
<g mask="url(#mask0)">
<rect x="1888" y="444" width="32" height="48" fill="#F1F0F1"/>
<path d="M635.327 664.267C655.362 683.924 675.647 703.423 695.952 722.752C847.031 866.442 1010.88 995.82 953.422 1272.5L956.3 1272.4H1079.67C1111.37 1272.4 1134.92 1280.45 1149.67 1296.27C1159.35 1306.67 1164.47 1319.4 1167.13 1330.67H200.529C220.134 1026.18 389.289 764.963 635.327 664.267ZM1091.08 257.328C1238.71 368.894 1374.93 488.919 1381.01 655.847C1386.33 801.629 1292.48 969.528 1095.15 1166.1C1343.27 689.914 1240.07 440.094 1091.08 257.328ZM945.058 470.71C872.842 324.253 799.066 174.375 789.134 2.2807C825.826 64.3664 879.517 120.611 934.756 178.164C1104.74 355.296 1293.58 552.255 1099.9 1010.22C1112.04 809.672 1027.67 638.292 945.058 470.71ZM843.174 728.574C694.593 529.344 541.687 324.085 725.81 -76.8934C713.12 141.825 801.974 322.29 888.66 498.113C981.571 686.592 1070.51 867.196 1026.81 1086.12C1006.51 947.719 923.994 836.926 843.174 728.574ZM484.569 275.329C485.328 167.581 544.404 46.415 663.746 -91.8298C507.842 255.969 590.71 470.928 708.583 648.359C589.031 533.738 483.509 421.825 484.569 275.329ZM421.785 274.902C421.266 347.58 442.43 412.205 476.435 471.652C435.885 428.857 396.914 374.2 371.732 306.749C299.056 111.982 113.703 23.5543 -4 19.4484V81.7524C76.2407 86.3344 246.135 149.59 312.866 328.359C335.469 388.947 367.535 440.074 402.389 482.562C365.077 450.755 329.014 409.824 300.235 356.952C242.847 251.565 127.793 146.298 -4 141.388V203.583C74.492 207.927 178.725 264.875 244.996 386.587C274.604 440.937 310.537 484.208 348.1 518.673C314.025 498.778 281.879 472.852 255.848 438.884C190.166 353.174 107.987 265.738 -4 265.53V327.824C80.6274 328.112 149.566 403.12 205.875 476.582C237.511 517.87 275.903 549.091 316.173 572.705C313.665 571.812 311.297 571.138 308.769 570.206C280.36 559.772 244.806 528.521 207.164 495.435C144.37 440.223 73.5826 385.347 -4 387.033V449.278C49.0807 447.651 110.955 494.096 165.545 542.069C207.703 579.122 247.534 614.142 286.985 628.622C292.121 630.516 297.067 632.103 302.104 633.809C296.188 632.857 290.342 632.083 284.317 630.903C253.22 624.843 216.647 598.412 177.916 570.454C124.025 531.506 63.0005 502.775 -4 502.06V564.374C42.8454 565.078 92.7085 585.946 140.973 620.797C185.47 652.931 227.509 683.319 272.216 692.027C313.295 700.03 352.027 703.224 387.74 703.224C410.164 703.224 431.248 701.875 451.084 699.743C258.116 850.177 137.226 1099.35 135.927 1393H1229.75L1232.4 1364.73C1232.65 1362.09 1237.96 1299.94 1196.37 1254.64C1179.64 1236.41 1158.27 1223.79 1132.57 1216.72C1347.52 1003.86 1449.76 818.608 1443.75 653.605C1435.77 434.47 1240.92 290.196 1069 162.93C964.144 85.3129 880.776 20.6186 834.55 -44.6804C808.11 -95.6482 797.487 -150.037 811.607 -214.236C812.067 -215.961 812.576 -217.697 813.036 -219.413L1331.51 -52.2874L1322.64 -2.3707C1260.62 1.98323 1208.11 47.2283 1196.84 110.722C1183.73 184.491 1231.45 254.035 1305.47 269.011L1318.01 207.957C1277.58 199.785 1251.51 161.829 1258.67 121.533C1265.82 81.2563 1303.29 54.4188 1344.19 60.4687L1374.43 64.9316L1402.82 -94.815L776.573 -297C540.198 -78.5001 422.964 109.909 421.785 274.902Z" fill="#121C53" fill-opacity="0.02"/>
</g>
</svg>
